<?xml version="1.0" encoding="UTF-8" standalone="no"?>
<svg
   xmlns:osb="http://www.openswatchbook.org/uri/2009/osb"
   xmlns:dc="http://purl.org/dc/elements/1.1/"
   xmlns:cc="http://creativecommons.org/ns#"
   xmlns:rdf="http://www.w3.org/1999/02/22-rdf-syntax-ns#"
   xmlns:svg="http://www.w3.org/2000/svg"
   xmlns="http://www.w3.org/2000/svg"
   xmlns:sodipodi="http://sodipodi.sourceforge.net/DTD/sodipodi-0.dtd"
   xmlns:inkscape="http://www.inkscape.org/namespaces/inkscape"
   width="210mm"
   height="297mm"
   viewBox="0 0 210 297"
   version="1.1"
   id="svg220"
   inkscape:version="1.0.1 (c497b03c, 2020-09-10)"
   sodipodi:docname="push.svg">
  <defs
     id="defs214">
    <linearGradient
       id="linearGradient1197"
       osb:paint="solid">
      <stop
         style="stop-color:#000000;stop-opacity:1;"
         offset="0"
         id="stop1195" />
    </linearGradient>
    <linearGradient
       id="linearGradient1107"
       osb:paint="solid">
      <stop
         style="stop-color:#000000;stop-opacity:1;"
         offset="0"
         id="stop1105" />
    </linearGradient>
    <filter
       inkscape:collect="always"
       style="color-interpolation-filters:sRGB"
       id="filter4499-7"
       x="-0.00012982222"
       width="1.0002596"
       y="-0.00011155952"
       height="1.000223">
      <feGaussianBlur
         inkscape:collect="always"
         stdDeviation="0.0015086234"
         id="feGaussianBlur4501-1" />
    </filter>
  </defs>
  <sodipodi:namedview
     id="base"
     pagecolor="#ffffff"
     bordercolor="#666666"
     borderopacity="1.0"
     inkscape:pageopacity="0.0"
     inkscape:pageshadow="2"
     inkscape:zoom="0.64573589"
     inkscape:cx="521.92302"
     inkscape:cy="498.83295"
     inkscape:document-units="mm"
     inkscape:current-layer="svg220"
     inkscape:document-rotation="0"
     showgrid="false"
     inkscape:window-width="1680"
     inkscape:window-height="904"
     inkscape:window-x="71"
     inkscape:window-y="40"
     inkscape:window-maximized="0" />
  <metadata
     id="metadata217">
    <rdf:RDF>
      <cc:Work
         rdf:about="">
        <dc:format>image/svg+xml</dc:format>
        <dc:type
           rdf:resource="http://purl.org/dc/dcmitype/StillImage" />
        <dc:title></dc:title>
      </cc:Work>
    </rdf:RDF>
  </metadata>
  <g
     id="Guides"
     inkscape:label="Guides"
     style="display:inline"
     transform="matrix(0.26458333,0,0,0.26458333,-340.09243,-136.0331)">
    <g
       id="H-reference"
       style="fill:#27aae1;stroke:none"
       transform="translate(339,696)">
      <path
         d="M 54.9316,0 H 57.666 L 30.5664,-70.459 H 28.0762 L 0.976562,0 H 3.66211 L 12.9395,-24.4629 H 45.7031 Z M 29.1992,-67.0898 h 0.2442 L 44.8242,-26.709 H 13.8184 Z"
         id="path94" />
    </g>
    <path
       id="Baseline-S"
       style="opacity:1;fill:none;stroke:#27aae1;stroke-width:0.577"
       d="M 263,696 H 3036" />
    <path
       id="Capline-S"
       style="opacity:1;fill:none;stroke:#27aae1;stroke-width:0.577"
       d="M 263,625.54102 H 3036" />
    <g
       id="g101"
       style="fill:#27aae1;stroke:none"
       transform="translate(339,1126)">
      <path
         d="M 54.9316,0 H 57.666 L 30.5664,-70.459 H 28.0762 L 0.976562,0 H 3.66211 L 12.9395,-24.4629 H 45.7031 Z M 29.1992,-67.0898 h 0.2442 L 44.8242,-26.709 H 13.8184 Z"
         id="path99" />
    </g>
    <path
       id="Baseline-M"
       style="opacity:1;fill:none;stroke:#27aae1;stroke-width:0.577"
       d="M 263,1126 H 3036" />
    <path
       id="Capline-M"
       style="opacity:1;fill:none;stroke:#27aae1;stroke-width:0.577"
       d="M 263,1055.54 H 3036" />
    <g
       id="g107"
       style="fill:#27aae1;stroke:none"
       transform="translate(339,1556)">
      <path
         d="M 54.9316,0 H 57.666 L 30.5664,-70.459 H 28.0762 L 0.976562,0 H 3.66211 L 12.9395,-24.4629 H 45.7031 Z M 29.1992,-67.0898 h 0.2442 L 44.8242,-26.709 H 13.8184 Z"
         id="path105" />
    </g>
    <path
       id="Baseline-L"
       style="opacity:1;fill:none;stroke:#27aae1;stroke-width:0.577"
       d="M 263,1556 H 3036" />
    <path
       id="Capline-L"
       style="opacity:1;fill:none;stroke:#27aae1;stroke-width:0.577"
       d="M 263,1485.54 H 3036" />
    <path
       id="left-margin"
       style="opacity:0.4;fill:#00aeef;stroke:none"
       d="m 1390.74,1030.79 h 23.0469 v 119.336 H 1390.74 Z" />
    <path
       id="right-margin"
       style="opacity:0.4;fill:#00aeef;stroke:none"
       d="m 1493.5,1030.79 h 15.4461 v 119.336 H 1493.5 Z" />
  </g>
  <g
     id="Symbols"
     inkscape:label="Symbols"
     style="display:inline"
     transform="rotate(11.995059,37.597194,160.549)">
    <g
       id="Regular-M"
       inkscape:label="Regular-M"
       transform="translate(-73.561987,46.25164)"
       style="display:inline">
      <path
         d="m 58.0078,15.8691 c 17.7734,0 30.1758,-9.52144 36.8164,-28.2226 l 8.6428,-24.2676 c 2.246,-6.2988 0.244,-11.6211 -5.0295,-13.5742 -4.7363,-1.709 -9.4238,0.3418 -11.6699,5.5664 l -2.7832,6.7383 c -0.0977,0.2441 -0.2442,0.3418 -0.3906,0.3418 -0.293,0 -0.3907,-0.1465 -0.3907,-0.4395 v -38.2812 c 0,-5.9082 -3.8086,-9.7168 -9.6191,-9.7168 -1.9043,0 -3.6621,0.6347 -5.0293,1.7578 -0.8301,-4.9317 -4.1504,-7.9102 -9.1309,-7.9102 -4.834,0 -8.3008,3.0762 -9.1797,7.8125 -1.2695,-1.0742 -2.9296,-1.6601 -4.6386,-1.6601 -5.3711,0 -8.9844,3.7109 -8.9844,9.375 v 4.834 c -1.2695,-1.2207 -3.1738,-1.8555 -5.127,-1.8555 -5.3711,0 -9.1308,3.9551 -9.1308,9.668 v 42.3339 c 0,23.24223 14.2578,37.5 35.6445,37.5 z M 57.7637,8.34961 c -17.4805,0 -28.1739,-11.18164 -28.1739,-30.81051 v -40.625 c 0,-2.0508 1.2696,-3.418 3.1739,-3.418 1.9531,0 3.3691,1.3672 3.3691,3.418 v 24.9023 c 0,2.0508 1.5137,3.4668 3.3203,3.4668 1.8067,0 3.3692,-1.416 3.3692,-3.4668 v -37.3535 c 0,-2.0508 1.3183,-3.418 3.2226,-3.418 2.002,0 3.3203,1.3672 3.3203,3.418 v 34.8633 c 0,2.0019 1.5625,3.4179 3.3203,3.4179 1.8555,0 3.418,-1.416 3.418,-3.4179 v -40.9668 c 0,-2.0508 1.3672,-3.4668 3.3203,-3.4668 1.9043,0 3.2715,1.3672 3.2715,3.4668 v 40.9668 c 0,1.9531 1.4649,3.4179 3.2715,3.4179 1.9043,0 3.418,-1.4648 3.418,-3.4179 v -34.8633 c 0,-2.0508 1.3672,-3.418 3.3203,-3.418 1.9043,0 3.2715,1.3672 3.2715,3.418 v 48.2422 c 0,2.4902 1.5136,4.1992 3.6621,4.1992 1.8554,0 3.4179,-0.8301 4.6386,-3.4668 l 6.7872,-14.8926 c 0.8789,-1.9531 2.4902,-2.9297 4.248,-2.2461 1.7578,0.6836 2.3926,2.4414 1.5625,4.7852 l -8.6426,24.2187 C 82.3242,1.85547 71.9727,8.34961 57.7637,8.34961 Z"
         id="path153-7"
         style="fill:#000000;fill-opacity:1;fill-rule:evenodd;stroke:none;filter:url(#filter4499-7)"
         inkscape:label="path153-7"
         transform="matrix(-0.10489807,0.12796047,0.10013933,0.23993715,120.13403,107.61411)" />
      <path
         d="m 125.57034,116.08957 c 2.47568,0.33788 3.39997,-1.69957 2.74726,-6.03815 l -0.84341,-5.62951 c -0.21853,-1.46111 -0.9464,-2.7698 -1.84575,-3.33636 -0.80387,-0.49805 -1.28381,-0.0976 -1.1559,1.10712 l 0.1808,1.55578 c 0.007,0.0563 -0.005,0.0769 -0.0256,0.0742 -0.0408,-0.006 -0.0667,-0.0424 -0.091,-0.11278 l -3.22952,-9.139455 c -0.49844,-1.410556 -1.35025,-2.392244 -2.15959,-2.50272 -0.26524,-0.03621 -0.45654,0.08191 -0.55223,0.324055 -0.53168,-1.193196 -1.24544,-1.967429 -1.93918,-2.062106 -0.67332,-0.09189 -0.89672,0.576643 -0.61956,1.6907 -0.26747,-0.280569 -0.54813,-0.452037 -0.78616,-0.484519 -0.74814,-0.102097 -0.93838,0.715168 -0.46056,2.06745 l 0.4078,1.154111 c -0.2798,-0.315584 -0.59863,-0.503337 -0.87068,-0.540457 -0.74814,-0.102116 -0.93818,0.770684 -0.45621,2.13461 l 3.57139,10.107011 c 1.96079,5.549 5.14959,9.22405 8.12857,9.6306 z m -0.66836,-1.79988 c -2.43487,-0.33231 -4.86768,-3.2052 -6.52363,-7.89152 l -3.42724,-9.699028 c -0.17303,-0.489612 -0.11151,-0.791897 0.15369,-0.755731 0.27205,0.03713 0.58463,0.390452 0.75766,0.880053 l 2.10084,5.945306 c 0.17302,0.4896 0.50331,0.85645 0.75501,0.89073 0.25166,0.0343 0.34983,-0.27404 0.17683,-0.76364 l -3.15125,-8.917966 c -0.17302,-0.489598 -0.10472,-0.790967 0.16051,-0.754797 0.27886,0.03806 0.57783,0.389544 0.75092,0.87908 l 2.94115,8.323463 c 0.1689,0.4779 0.50601,0.84567 0.75091,0.87902 0.25846,0.0353 0.35667,-0.27306 0.18775,-0.751 l -3.45608,-9.780655 c -0.17303,-0.489619 -0.10203,-0.801693 0.17002,-0.764568 0.26525,0.0362 0.57103,0.3886 0.74821,0.889823 l 3.45608,9.78064 c 0.16476,0.46627 0.49238,0.84385 0.7442,0.87796 0.26525,0.0362 0.35254,-0.28468 0.18775,-0.75101 l -2.94117,-8.323447 c -0.17302,-0.48961 -0.0979,-0.790034 0.17414,-0.752915 0.26525,0.0362 0.57102,0.388597 0.74421,0.878017 l 4.06987,11.517615 c 0.21009,0.59453 0.56509,1.03132 0.86434,1.07217 0.25845,0.0353 0.40605,-0.13321 0.35364,-0.73951 l -0.31098,-3.42652 c -0.0423,-0.44955 0.0997,-0.65205 0.40256,-0.45506 0.30252,0.19661 0.53925,0.62829 0.62134,1.17211 l 0.83932,5.61782 c 0.57347,3.83962 -0.3205,5.19332 -2.29973,4.92317 z"
         id="path153-2"
         style="fill:#000000;fill-opacity:1;fill-rule:evenodd;stroke:none;stroke-width:0.177908"
         inkscape:transform-center-x="-0.48064641"
         inkscape:transform-center-y="3.3682671" />
    </g>
  </g>
</svg>
