<?xml version="1.0" encoding="UTF-8" standalone="no"?>
<svg
   xmlns:osb="http://www.openswatchbook.org/uri/2009/osb"
   xmlns:dc="http://purl.org/dc/elements/1.1/"
   xmlns:cc="http://creativecommons.org/ns#"
   xmlns:rdf="http://www.w3.org/1999/02/22-rdf-syntax-ns#"
   xmlns:svg="http://www.w3.org/2000/svg"
   xmlns="http://www.w3.org/2000/svg"
   xmlns:sodipodi="http://sodipodi.sourceforge.net/DTD/sodipodi-0.dtd"
   xmlns:inkscape="http://www.inkscape.org/namespaces/inkscape"
   width="210mm"
   height="297mm"
   viewBox="0 0 210 297"
   version="1.1"
   id="svg220"
   inkscape:version="1.0.1 (c497b03c, 2020-09-10)"
   sodipodi:docname="open.svg">
  <defs
     id="defs214">
    <linearGradient
       id="linearGradient1197"
       osb:paint="solid">
      <stop
         style="stop-color:#000000;stop-opacity:1;"
         offset="0"
         id="stop1195" />
    </linearGradient>
    <linearGradient
       id="linearGradient1107"
       osb:paint="solid">
      <stop
         style="stop-color:#000000;stop-opacity:1;"
         offset="0"
         id="stop1105" />
    </linearGradient>
    <filter
       inkscape:collect="always"
       style="color-interpolation-filters:sRGB"
       id="filter4499-7"
       x="-0.00012982222"
       width="1.0002596"
       y="-0.00011155952"
       height="1.000223">
      <feGaussianBlur
         inkscape:collect="always"
         stdDeviation="0.0015086234"
         id="feGaussianBlur4501-1" />
    </filter>
  </defs>
  <sodipodi:namedview
     id="base"
     pagecolor="#ffffff"
     bordercolor="#666666"
     borderopacity="1.0"
     inkscape:pageopacity="0.0"
     inkscape:pageshadow="2"
     inkscape:zoom="0.64573589"
     inkscape:cx="521.92302"
     inkscape:cy="498.83295"
     inkscape:document-units="mm"
     inkscape:current-layer="Regular-M"
     inkscape:document-rotation="0"
     showgrid="false"
     inkscape:window-width="1680"
     inkscape:window-height="904"
     inkscape:window-x="54"
     inkscape:window-y="83"
     inkscape:window-maximized="0" />
  <metadata
     id="metadata217">
    <rdf:RDF>
      <cc:Work
         rdf:about="">
        <dc:format>image/svg+xml</dc:format>
        <dc:type
           rdf:resource="http://purl.org/dc/dcmitype/StillImage" />
        <dc:title></dc:title>
      </cc:Work>
    </rdf:RDF>
  </metadata>
  <g
     id="Guides"
     inkscape:label="Guides"
     style="display:inline"
     transform="matrix(0.26458333,0,0,0.26458333,-340.09243,-136.0331)">
    <g
       id="H-reference"
       style="fill:#27aae1;stroke:none"
       transform="translate(339,696)">
      <path
         d="M 54.9316,0 H 57.666 L 30.5664,-70.459 H 28.0762 L 0.976562,0 H 3.66211 L 12.9395,-24.4629 H 45.7031 Z M 29.1992,-67.0898 h 0.2442 L 44.8242,-26.709 H 13.8184 Z"
         id="path94" />
    </g>
    <path
       id="Baseline-S"
       style="opacity:1;fill:none;stroke:#27aae1;stroke-width:0.577"
       d="M 263,696 H 3036" />
    <path
       id="Capline-S"
       style="opacity:1;fill:none;stroke:#27aae1;stroke-width:0.577"
       d="M 263,625.54102 H 3036" />
    <g
       id="g101"
       style="fill:#27aae1;stroke:none"
       transform="translate(339,1126)">
      <path
         d="M 54.9316,0 H 57.666 L 30.5664,-70.459 H 28.0762 L 0.976562,0 H 3.66211 L 12.9395,-24.4629 H 45.7031 Z M 29.1992,-67.0898 h 0.2442 L 44.8242,-26.709 H 13.8184 Z"
         id="path99" />
    </g>
    <path
       id="Baseline-M"
       style="opacity:1;fill:none;stroke:#27aae1;stroke-width:0.577"
       d="M 263,1126 H 3036" />
    <path
       id="Capline-M"
       style="opacity:1;fill:none;stroke:#27aae1;stroke-width:0.577"
       d="M 263,1055.54 H 3036" />
    <g
       id="g107"
       style="fill:#27aae1;stroke:none"
       transform="translate(339,1556)">
      <path
         d="M 54.9316,0 H 57.666 L 30.5664,-70.459 H 28.0762 L 0.976562,0 H 3.66211 L 12.9395,-24.4629 H 45.7031 Z M 29.1992,-67.0898 h 0.2442 L 44.8242,-26.709 H 13.8184 Z"
         id="path105" />
    </g>
    <path
       id="Baseline-L"
       style="opacity:1;fill:none;stroke:#27aae1;stroke-width:0.577"
       d="M 263,1556 H 3036" />
    <path
       id="Capline-L"
       style="opacity:1;fill:none;stroke:#27aae1;stroke-width:0.577"
       d="M 263,1485.54 H 3036" />
    <path
       id="left-margin"
       style="opacity:0.4;fill:#00aeef;stroke:none"
       d="m 1390.74,1030.79 h 23.0469 v 119.336 H 1390.74 Z" />
    <path
       id="right-margin"
       style="opacity:0.4;fill:#00aeef;stroke:none"
       d="m 1493.5,1030.79 h 15.4461 v 119.336 H 1493.5 Z" />
  </g>
  <g
     id="Symbols"
     inkscape:label="Symbols"
     style="display:inline">
    <g
       id="Regular-M"
       inkscape:label="Regular-M"
       transform="translate(-73.561987,46.25164)"
       style="display:inline">
      <path
         d="m 58.0078,15.8691 c 17.7734,0 30.1758,-9.52144 36.8164,-28.2226 l 8.6428,-24.2676 c 2.246,-6.2988 0.244,-11.6211 -5.0295,-13.5742 -4.7363,-1.709 -9.4238,0.3418 -11.6699,5.5664 l -2.7832,6.7383 c -0.0977,0.2441 -0.2442,0.3418 -0.3906,0.3418 -0.293,0 -0.3907,-0.1465 -0.3907,-0.4395 v -38.2812 c 0,-5.9082 -3.8086,-9.7168 -9.6191,-9.7168 -1.9043,0 -3.6621,0.6347 -5.0293,1.7578 -0.8301,-4.9317 -4.1504,-7.9102 -9.1309,-7.9102 -4.834,0 -8.3008,3.0762 -9.1797,7.8125 -1.2695,-1.0742 -2.9296,-1.6601 -4.6386,-1.6601 -5.3711,0 -8.9844,3.7109 -8.9844,9.375 v 4.834 c -1.2695,-1.2207 -3.1738,-1.8555 -5.127,-1.8555 -5.3711,0 -9.1308,3.9551 -9.1308,9.668 v 42.3339 c 0,23.24223 14.2578,37.5 35.6445,37.5 z M 57.7637,8.34961 c -17.4805,0 -28.1739,-11.18164 -28.1739,-30.81051 v -40.625 c 0,-2.0508 1.2696,-3.418 3.1739,-3.418 1.9531,0 3.3691,1.3672 3.3691,3.418 v 24.9023 c 0,2.0508 1.5137,3.4668 3.3203,3.4668 1.8067,0 3.3692,-1.416 3.3692,-3.4668 v -37.3535 c 0,-2.0508 1.3183,-3.418 3.2226,-3.418 2.002,0 3.3203,1.3672 3.3203,3.418 v 34.8633 c 0,2.0019 1.5625,3.4179 3.3203,3.4179 1.8555,0 3.418,-1.416 3.418,-3.4179 v -40.9668 c 0,-2.0508 1.3672,-3.4668 3.3203,-3.4668 1.9043,0 3.2715,1.3672 3.2715,3.4668 v 40.9668 c 0,1.9531 1.4649,3.4179 3.2715,3.4179 1.9043,0 3.418,-1.4648 3.418,-3.4179 v -34.8633 c 0,-2.0508 1.3672,-3.418 3.3203,-3.418 1.9043,0 3.2715,1.3672 3.2715,3.418 v 48.2422 c 0,2.4902 1.5136,4.1992 3.6621,4.1992 1.8554,0 3.4179,-0.8301 4.6386,-3.4668 l 6.7872,-14.8926 c 0.8789,-1.9531 2.4902,-2.9297 4.248,-2.2461 1.7578,0.6836 2.3926,2.4414 1.5625,4.7852 l -8.6426,24.2187 C 82.3242,1.85547 71.9727,8.34961 57.7637,8.34961 Z"
         id="path153-7"
         style="fill:#000000;fill-opacity:1;fill-rule:evenodd;stroke:none;filter:url(#filter4499-7)"
         inkscape:label="path153-7"
         transform="matrix(-0.10489807,0.12796047,0.10013933,0.23993715,116.95901,107.61411)" />
      <path
         d="m 120.46381,117.7441 c 1.85189,2.27617 4.09706,1.61619 6.66056,-1.94927 l 3.32922,-4.62344 c 0.8644,-1.19969 1.18846,-2.71283 0.83444,-3.84939 -0.32245,-1.01008 -1.01611,-1.12615 -1.77301,-0.1801 l -0.96435,1.23468 c -0.0346,0.0451 -0.0597,0.0493 -0.0749,0.0307 -0.0305,-0.0375 -0.026,-0.0847 0.004,-0.15371 l 3.83115,-9.039322 c 0.59128,-1.3951 0.57561,-2.78216 -0.0298,-3.52629 -0.19841,-0.24388 -0.44508,-0.31911 -0.69994,-0.22901 0.40707,-1.270813 0.3592,-2.399344 -0.15974,-3.037169 -0.50367,-0.619048 -1.17277,-0.336654 -1.73834,0.669167 -0.0248,-0.416223 -0.13911,-0.767182 -0.31718,-0.986035 -0.55963,-0.687839 -1.30751,-0.274338 -1.87437,1.063114 l -0.48378,1.141458 c -0.0101,-0.45083 -0.145,-0.844607 -0.34851,-1.094729 -0.55963,-0.687849 -1.3472,-0.235423 -1.91894,1.113553 l -4.23675,9.996263 c -2.32606,5.48816 -2.26739,10.68077 -0.039,13.41965 z m 0.72711,-1.80681 c -1.82137,-2.23864 -1.81651,-6.24841 0.14794,-10.88336 l 4.06572,-9.592752 c 0.20524,-0.484254 0.47435,-0.644496 0.67276,-0.400681 0.2035,0.250121 0.21422,0.754291 0.009,1.238541 l -2.4922,5.880172 c -0.20524,0.48426 -0.18923,1.01247 -9e-4,1.24383 0.18826,0.23138 0.49277,0.0971 0.69801,-0.38714 l 3.73831,-8.820246 c 0.20524,-0.484236 0.47943,-0.638251 0.67785,-0.39442 0.2086,0.256392 0.20912,0.748059 0.004,1.232311 l -3.48909,8.232225 c -0.20035,0.47271 -0.17925,1.00718 0.004,1.23229 0.19334,0.23763 0.49786,0.10342 0.6982,-0.36935 l 4.09993,-9.673443 c 0.20525,-0.484257 0.48941,-0.643517 0.69291,-0.3934 0.19842,0.243878 0.20405,0.741799 -0.006,1.237581 l -4.09993,9.673452 c -0.19547,0.46118 -0.18943,0.99467 -8.9e-4,1.22601 0.19842,0.24388 0.50272,0.0919 0.6982,-0.36932 l 3.48909,-8.232252 c 0.20524,-0.48425 0.48452,-0.63199 0.68802,-0.38188 0.19843,0.24388 0.20405,0.74179 -9e-4,1.22605 l -4.82804,11.391412 c -0.24922,0.58801 -0.26254,1.1854 -0.0387,1.46053 0.19333,0.23762 0.4392,0.24172 0.83027,-0.22457 l 2.19764,-2.64736 c 0.28703,-0.34861 0.55266,-0.37286 0.6674,0.0142 0.11474,0.38653 0.005,0.88289 -0.31609,1.33002 l -3.3243,4.61193 c -2.2722,3.15196 -4.00069,3.3598 -5.4812,1.54007 z"
         id="path153-2"
         style="fill:#000000;fill-opacity:1;fill-rule:evenodd;stroke:none;stroke-width:0.193442"
         inkscape:transform-center-x="2.0624611"
         inkscape:transform-center-y="3.2298778" />
    </g>
  </g>
</svg>
