<?xml version="1.0" encoding="UTF-8" standalone="no"?>
<svg
   xmlns:osb="http://www.openswatchbook.org/uri/2009/osb"
   xmlns:dc="http://purl.org/dc/elements/1.1/"
   xmlns:cc="http://creativecommons.org/ns#"
   xmlns:rdf="http://www.w3.org/1999/02/22-rdf-syntax-ns#"
   xmlns:svg="http://www.w3.org/2000/svg"
   xmlns="http://www.w3.org/2000/svg"
   xmlns:sodipodi="http://sodipodi.sourceforge.net/DTD/sodipodi-0.dtd"
   xmlns:inkscape="http://www.inkscape.org/namespaces/inkscape"
   width="210mm"
   height="297mm"
   viewBox="0 0 210 297"
   version="1.1"
   id="svg220"
   inkscape:version="1.0.1 (c497b03c, 2020-09-10)"
   sodipodi:docname="updown.svg">
  <defs
     id="defs214">
    <inkscape:path-effect
       effect="lattice2"
       gridpoint1="104.37654,-92.1387"
       gridpoint3="104.37654,15.8691"
       gridpoint4="42.866611,-92.1387"
       gridpoint5="83.873234,-92.1387"
       gridpoint6="42.866611,15.8691"
       gridpoint7="83.873234,15.8691"
       gridpoint8x9="63.369922,-92.1387"
       gridpoint10x11="63.369922,15.8691"
       gridpoint12="40.719884,-61.227308"
       gridpoint13="86.019961,-61.227308"
       gridpoint14="40.719884,-15.042292"
       gridpoint15="86.019961,-15.042292"
       gridpoint16="42.866611,-65.13675"
       gridpoint17="83.873234,-65.13675"
       gridpoint18="42.866611,-11.13285"
       gridpoint19="83.873234,-11.13285"
       gridpoint20x21="63.369922,-65.13675"
       gridpoint22x23="63.369922,-11.13285"
       gridpoint24x26="22.3633,-38.1348"
       gridpoint25x27="104.37654,-38.1348"
       gridpoint28x30="42.866611,-38.1348"
       gridpoint29x31="83.873234,-38.1348"
       gridpoint32x33x34x35="63.369922,-38.1348"
       id="path-effect11751"
       is_visible="true"
       lpeversion="1"
       horizontal_mirror="true"
       vertical_mirror="true"
       perimetral="false"
       live_update="true"
       gridpoint0="22.3633,-92.1387"
       gridpoint2="22.3633,15.8691" />
    <inkscape:path-effect
       effect="lattice2"
       gridpoint0="102.95818,105.32316"
       gridpoint1="129.30271,105.32316"
       gridpoint2="102.95818,120.15251"
       gridpoint3="129.30271,118.07268"
       gridpoint4="109.61507,107.68648"
       gridpoint5="122.64582,106.9932"
       gridpoint6="109.61507,118.48247"
       gridpoint7="122.64582,118.48247"
       gridpoint8x9="116.13044,105.32316"
       gridpoint10x11="116.13044,120.15251"
       gridpoint12="102.95818,109.0305"
       gridpoint13="129.30271,109.0305"
       gridpoint14="102.95818,116.44517"
       gridpoint15="129.30271,116.44517"
       gridpoint16="109.56088,109.49711"
       gridpoint17="122.72312,110.05173"
       gridpoint18="109.58399,116.18655"
       gridpoint19="122.72312,115.42394"
       gridpoint20x21="116.13044,109.0305"
       gridpoint22x23="116.13044,116.44517"
       gridpoint24x26="102.95818,112.73784"
       gridpoint25x27="129.25649,113.61599"
       gridpoint28x30="109.54431,112.28179"
       gridpoint29x31="122.71658,112.28179"
       gridpoint32x33x34x35="116.13044,112.73784"
       id="path-effect11745"
       is_visible="true"
       lpeversion="1"
       horizontal_mirror="false"
       vertical_mirror="false"
       perimetral="false"
       live_update="true" />
    <linearGradient
       id="linearGradient1197"
       osb:paint="solid">
      <stop
         style="stop-color:#000000;stop-opacity:1;"
         offset="0"
         id="stop1195" />
    </linearGradient>
    <linearGradient
       id="linearGradient1107"
       osb:paint="solid">
      <stop
         style="stop-color:#000000;stop-opacity:1;"
         offset="0"
         id="stop1105" />
    </linearGradient>
  </defs>
  <sodipodi:namedview
     id="base"
     pagecolor="#ffffff"
     bordercolor="#666666"
     borderopacity="1.0"
     inkscape:pageopacity="0.0"
     inkscape:pageshadow="2"
     inkscape:zoom="8.6846958"
     inkscape:cx="171.45872"
     inkscape:cy="577.1052"
     inkscape:document-units="mm"
     inkscape:current-layer="Symbols"
     inkscape:document-rotation="0"
     showgrid="false"
     inkscape:window-width="1680"
     inkscape:window-height="904"
     inkscape:window-x="65"
     inkscape:window-y="23"
     inkscape:window-maximized="0" />
  <metadata
     id="metadata217">
    <rdf:RDF>
      <cc:Work
         rdf:about="">
        <dc:format>image/svg+xml</dc:format>
        <dc:type
           rdf:resource="http://purl.org/dc/dcmitype/StillImage" />
        <dc:title></dc:title>
      </cc:Work>
    </rdf:RDF>
  </metadata>
  <g
     id="Guides"
     inkscape:label="Guides"
     style="display:inline"
     transform="matrix(0.26458333,0,0,0.26458333,-340.09243,-136.0331)">
    <g
       id="H-reference"
       style="fill:#27aae1;stroke:none"
       transform="translate(339,696)">
      <path
         d="M 54.9316,0 H 57.666 L 30.5664,-70.459 H 28.0762 L 0.976562,0 H 3.66211 L 12.9395,-24.4629 H 45.7031 Z M 29.1992,-67.0898 h 0.2442 L 44.8242,-26.709 H 13.8184 Z"
         id="path94" />
    </g>
    <path
       id="Baseline-S"
       style="opacity:1;fill:none;stroke:#27aae1;stroke-width:0.577"
       d="M 263,696 H 3036" />
    <path
       id="Capline-S"
       style="opacity:1;fill:none;stroke:#27aae1;stroke-width:0.577"
       d="M 263,625.54102 H 3036" />
    <g
       id="g101"
       style="fill:#27aae1;stroke:none"
       transform="translate(339,1126)">
      <path
         d="M 54.9316,0 H 57.666 L 30.5664,-70.459 H 28.0762 L 0.976562,0 H 3.66211 L 12.9395,-24.4629 H 45.7031 Z M 29.1992,-67.0898 h 0.2442 L 44.8242,-26.709 H 13.8184 Z"
         id="path99" />
    </g>
    <path
       id="Baseline-M"
       style="opacity:1;fill:none;stroke:#27aae1;stroke-width:0.577"
       d="M 263,1126 H 3036" />
    <path
       id="Capline-M"
       style="opacity:1;fill:none;stroke:#27aae1;stroke-width:0.577"
       d="M 263,1055.54 H 3036" />
    <g
       id="g107"
       style="fill:#27aae1;stroke:none"
       transform="translate(339,1556)">
      <path
         d="M 54.9316,0 H 57.666 L 30.5664,-70.459 H 28.0762 L 0.976562,0 H 3.66211 L 12.9395,-24.4629 H 45.7031 Z M 29.1992,-67.0898 h 0.2442 L 44.8242,-26.709 H 13.8184 Z"
         id="path105" />
    </g>
    <path
       id="Baseline-L"
       style="opacity:1;fill:none;stroke:#27aae1;stroke-width:0.577"
       d="M 263,1556 H 3036" />
    <path
       id="Capline-L"
       style="opacity:1;fill:none;stroke:#27aae1;stroke-width:0.577"
       d="M 263,1485.54 H 3036" />
    <path
       id="left-margin"
       style="opacity:0.4;fill:#00aeef;stroke:none"
       d="m 1390.74,1030.79 h 23.0469 v 119.336 H 1390.74 Z" />
    <path
       id="right-margin"
       style="opacity:0.4;fill:#00aeef;stroke:none"
       d="m 1493.5,1030.79 h 15.4461 v 119.336 H 1493.5 Z" />
  </g>
  <g
     id="Symbols"
     inkscape:label="Symbols"
     style="display:inline">
    <g
       id="Regular-M"
       inkscape:label="Regular-M"
       transform="rotate(-45,135.43205,220.43449)"
       style="display:inline">
      <path
         d="m 58.0078,15.8691 c 9.049106,0 16.361119,-2.755979 20.689641,-7.9323411 4.449974,-5.3216022 5.413016,-12.4397739 5.255329,-21.7312579 -0.06584,-4.348323 -0.03602,-9.353024 0.414565,-14.461998 0.41667,-4.724469 1.16434,-8.474096 1.16434,-8.474096 1.118753,-5.816571 0.750746,-10.813535 -2.009218,-12.63517 -2.490704,-1.597858 -5.573908,0.322592 -7.07735,5.200185 -0.618213,2.10028 -1.688574,6.2573 -1.688574,6.2573 -0.05359,0.226431 -0.133999,0.317061 -0.214871,0.317061 -0.161854,0 -0.216542,-0.135899 -0.216804,-0.407688 -0.0033,-6.656816 0.456182,-14.032573 1.723305,-22.524773 1.150246,-7.708893 2.703743,-14.361757 2.703743,-14.361757 1.371783,-6.120313 -0.898762,-10.356538 -6.150367,-10.356538 -1.728811,0 -3.39217,0.698616 -4.676967,1.919398 -0.3674,-5.354947 -3.520272,-8.816125 -8.500772,-8.816125 -4.834,0 -7.710873,3.56405 -7.602628,8.710007 -1.318344,-1.168386 -2.9562,-1.81328 -4.506966,-1.81328 -4.85447,0 -6.586904,4.12364 -4.797333,10.002134 0.520157,1.683037 1.431359,4.952824 1.431359,4.952824 -1.260293,-1.236503 -2.8882,-1.886347 -4.35028,-1.886347 -4.005595,0 -4.935101,4.067503 -3.077499,9.650671 2.578922,7.740116 4.27669,16.022775 4.198976,24.975533 -0.07067,8.141748 -1.713955,14.833094 -1.713955,14.833094 C 36.558602,-11.550277 34.224298,-2.3821124 36.874158,4.7619759 39.459756,11.732815 46.91925,15.8691 58.0078,15.8691 Z m 0.406122,-8.3913578 c -7.942078,0 -13.32647,-3.0748438 -15.495578,-8.5454002 -2.217825,-5.59342 -1.095449,-13.035206 0.519297,-22.432324 1.238411,-7.187732 1.721585,-15.000191 0.786666,-23.668348 -0.849806,-7.879033 -2.740821,-14.496888 -2.740821,-14.496888 -0.53063,-1.997414 -0.08686,-3.35172 1.200225,-3.35172 1.320066,0 2.611192,1.354306 3.039042,3.35172 0.974596,4.532953 1.792081,9.501122 2.236791,14.806362 0.405452,4.836902 0.365924,8.678789 0.365924,8.678789 8.36e-4,1.902339 0.789975,3.216823 1.791092,3.216823 1.001379,0 1.904491,-1.314828 1.90386,-3.216823 9.52e-4,-6.488122 -0.462832,-13.702549 -1.723368,-21.970985 -1.145343,-7.512826 -2.688729,-13.977203 -2.688729,-13.977203 -0.483839,-2.115978 0.222094,-3.56016 1.760987,-3.56016 1.617847,0 2.928146,1.444182 3.257918,3.56016 1.050442,6.712625 1.954154,13.915755 2.485711,21.420857 0.484831,6.845385 0.507607,12.216995 0.507607,12.216995 0.02185,1.857498 0.873924,3.170895 1.846561,3.170895 1.024806,0 1.893347,-1.313397 1.882011,-3.170895 -0.04034,-7.120193 -0.285254,-15.065241 -0.87351,-24.300918 -0.534316,-8.388821 -1.230369,-15.743814 -1.230369,-15.743814 -0.199026,-2.191392 0.868353,-3.744437 2.608606,-3.744437 1.696771,0 2.928538,1.500899 2.947455,3.744437 0.07221,8.014988 0.132137,16.943689 0.165084,25.656853 0.03056,8.082806 0.03024,14.387879 0.03024,14.387879 0.001,1.81223 0.809568,3.170895 1.807991,3.170895 1.052669,0 1.884424,-1.358665 1.893578,-3.170895 0.0338,-6.073137 0.184704,-12.806018 0.542777,-20.566401 0.324764,-7.038461 0.742821,-13.071451 0.742821,-13.071451 0.141633,-2.115978 1.351697,-3.56016 2.930026,-3.56016 1.538894,0 2.423241,1.444182 2.126389,3.56016 -1.302002,9.31141 -2.29424,19.025311 -2.60328,29.262592 -0.280842,9.30316 0.123674,16.817659 0.123674,16.817659 0.104467,2.331719 1.098867,3.948027 2.36018,3.948027 1.1032,0 1.922951,-0.786501 2.427106,-3.261795 0.516563,-2.569241 1.147081,-5.546472 1.935332,-8.669106 0.726413,-2.877662 1.430686,-5.184768 1.430686,-5.184768 0.54314,-1.816857 1.513964,-2.719531 2.451439,-2.086873 0.943894,0.63699 1.191833,2.268157 0.71427,4.44306 -0.942296,4.279648 -1.620056,8.82897 -2.095165,14.118467 -0.426492,4.748221 -0.585415,8.666583 -0.585415,8.666583 -0.406611,8.1430109 -1.808813,13.8397482 -5.477188,17.859522 -3.567149,3.9088503 -8.962322,5.6926292 -15.307926,5.6926292 z"
         id="path153-7"
         style="fill:#000000;fill-opacity:1;fill-rule:evenodd;stroke:none"
         inkscape:label="path153-7"
         transform="matrix(-0.0835047,0.18523011,0.23312927,-0.00907655,128.18579,90.499805)"
         inkscape:path-effect="#path-effect11751"
         inkscape:original-d="m 58.0078,15.8691 c 17.7734,0 30.1758,-9.52144 36.8164,-28.2226 l 8.6428,-24.2676 c 2.246,-6.2988 0.244,-11.6211 -5.0295,-13.5742 -4.7363,-1.709 -9.4238,0.3418 -11.6699,5.5664 l -2.7832,6.7383 c -0.0977,0.2441 -0.2442,0.3418 -0.3906,0.3418 -0.293,0 -0.3907,-0.1465 -0.3907,-0.4395 v -38.2812 c 0,-5.9082 -3.8086,-9.7168 -9.6191,-9.7168 -1.9043,0 -3.6621,0.6347 -5.0293,1.7578 -0.8301,-4.9317 -4.1504,-7.9102 -9.1309,-7.9102 -4.834,0 -8.3008,3.0762 -9.1797,7.8125 -1.2695,-1.0742 -2.9296,-1.6601 -4.6386,-1.6601 -5.3711,0 -8.9844,3.7109 -8.9844,9.375 v 4.834 c -1.2695,-1.2207 -3.1738,-1.8555 -5.127,-1.8555 -5.3711,0 -9.1308,3.9551 -9.1308,9.668 v 42.3339 c 0,23.24223 14.2578,37.5 35.6445,37.5 z M 57.7637,8.34961 c -17.4805,0 -28.1739,-11.18164 -28.1739,-30.81051 v -40.625 c 0,-2.0508 1.2696,-3.418 3.1739,-3.418 1.9531,0 3.3691,1.3672 3.3691,3.418 v 24.9023 c 0,2.0508 1.5137,3.4668 3.3203,3.4668 1.8067,0 3.3692,-1.416 3.3692,-3.4668 v -37.3535 c 0,-2.0508 1.3183,-3.418 3.2226,-3.418 2.002,0 3.3203,1.3672 3.3203,3.418 v 34.8633 c 0,2.0019 1.5625,3.4179 3.3203,3.4179 1.8555,0 3.418,-1.416 3.418,-3.4179 v -40.9668 c 0,-2.0508 1.3672,-3.4668 3.3203,-3.4668 1.9043,0 3.2715,1.3672 3.2715,3.4668 v 40.9668 c 0,1.9531 1.4649,3.4179 3.2715,3.4179 1.9043,0 3.418,-1.4648 3.418,-3.4179 v -34.8633 c 0,-2.0508 1.3672,-3.418 3.3203,-3.418 1.9043,0 3.2715,1.3672 3.2715,3.418 v 48.2422 c 0,2.4902 1.5136,4.1992 3.6621,4.1992 1.8554,0 3.4179,-0.8301 4.6386,-3.4668 l 6.7872,-14.8926 c 0.8789,-1.9531 2.4902,-2.9297 4.248,-2.2461 1.7578,0.6836 2.3926,2.4414 1.5625,4.7852 l -8.6426,24.2187 C 82.3242,1.85547 71.9727,8.34961 57.7637,8.34961 Z" />
      <path
         d="m 128.43543,112.83542 c -0.90046,-1.37474 -2.12218,-2.43154 -3.84196,-3.1338 -1.70108,-0.69462 -3.77401,-1.00638 -6.27406,-1.24905 -1.18861,-0.11248 -2.57026,-0.28714 -4.03532,-0.56738 -1.34804,-0.25786 -2.43052,-0.55068 -2.43052,-0.55068 -1.68164,-0.44103 -2.72625,-0.25486 -2.66803,0.55235 0.0629,0.72615 0.99626,1.47406 2.42675,1.8126 0.6214,0.14824 1.83216,0.37943 1.83216,0.37943 0.066,0.012 0.10277,0.0298 0.1169,0.0476 0.0282,0.0357 0.004,0.0477 -0.0642,0.0478 -1.64829,0.008 -3.52122,-0.0438 -5.55857,-0.19259 -1.86203,-0.13601 -3.36523,-0.32218 -3.36523,-0.32218 -1.35686,-0.15853 -1.9488,0.42952 -1.34408,1.55575 0.1883,0.35071 0.50873,0.6624 0.90836,0.89126 -1.06573,0.15345 -1.47283,0.7788 -0.9678,1.65393 0.48555,0.84136 1.53249,1.24368 2.73847,1.19215 -0.12779,0.22249 -0.10299,0.48752 0.064,0.7295 0.53337,0.77291 1.73712,1.03329 3.06546,0.76161 0.38639,-0.0706 1.1258,-0.22138 1.1258,-0.22138 -0.16117,0.21265 -0.12474,0.48421 0.0638,0.73422 0.51672,0.6854 1.79925,0.99665 3.12327,0.77951 1.84418,-0.29753 3.89566,-0.53688 6.14257,-0.641 2.04558,-0.0948 3.687,-0.0399 3.687,-0.0399 2.69661,0.0708 4.57071,-0.23039 5.45915,-0.86475 0.87364,-0.6238 0.87159,-1.71324 -0.20385,-3.35513 0,0 -1.1e-4,5e-5 -1.1e-4,5e-5 z m -1.73613,-0.0292 c 0.86661,1.19903 0.88652,2.05059 0.15178,2.54331 -0.74832,0.50183 -2.28349,0.68557 -4.56675,0.65576 -1.77046,-0.0188 -3.72353,0.0504 -5.8865,0.26912 -1.96225,0.19837 -3.53614,0.46987 -3.53614,0.46987 -0.47655,0.0788 -0.91521,-0.0257 -1.09947,-0.26459 -0.18863,-0.24458 -0.008,-0.47297 0.46838,-0.54895 1.93721,-0.30118 5.77078,-0.65008 5.77078,-0.65008 0.47485,-0.0301 0.65629,-0.22457 0.48062,-0.43018 -0.17525,-0.20512 -0.65517,-0.36022 -1.12952,-0.33001 -2.87222,0.18948 -8.6661,1.08089 -8.6661,1.08089 -0.47969,0.0863 -0.92432,-0.0237 -1.11129,-0.2792 -0.19686,-0.26906 -0.002,-0.49597 0.47493,-0.56722 2.72304,-0.39834 8.09198,-0.89822 8.09198,-0.89822 0.46352,-0.0314 0.63889,-0.21397 0.46907,-0.39536 -0.17892,-0.19112 -0.65898,-0.33489 -1.12135,-0.30733 -3.14974,0.19391 -9.52461,0.86428 -9.52461,0.86428 -0.48292,0.0563 -0.94513,-0.10632 -1.13879,-0.41524 -0.18958,-0.30242 0.004,-0.54098 0.49394,-0.57312 3.2163,-0.20173 9.53239,-0.56057 9.53239,-0.56057 0.45273,-0.0219 0.64851,-0.18913 0.47509,-0.3769 -0.18259,-0.19771 -0.66954,-0.34779 -1.12068,-0.33251 -2.68111,0.0971 -8.10977,0.18869 -8.10977,0.18869 -0.48284,0.006 -0.9328,-0.2038 -1.12656,-0.53038 -0.18998,-0.3202 0.004,-0.53212 0.48212,-0.51006 3.78326,0.1838 11.21612,0.0333 11.21612,0.0333 0.57662,-0.0233 0.82618,-0.20748 0.62027,-0.44898 -0.17983,-0.21094 -0.5186,-0.37763 -1.24833,-0.49931 -1.35761,-0.21777 -4.10724,-0.84928 -4.10724,-0.84928 -0.53855,-0.13796 -0.92173,-0.38382 -0.93333,-0.63563 -0.0116,-0.25182 0.33552,-0.31929 0.96034,-0.17197 2.16463,0.51944 6.44921,1.01677 6.44921,1.01677 4.55349,0.43373 6.75623,1.33187 8.28939,3.45317 0,0 2e-5,-5e-5 2e-5,-5e-5 z"
         id="path153-2"
         style="fill:#000000;fill-opacity:1;fill-rule:evenodd;stroke:none;stroke-width:0.205972"
         inkscape:path-effect="#path-effect11745"
         inkscape:original-d="m 128.48708,113.11745 c -1.72663,-3.17174 -5.15144,-5.30489 -10.1568,-6.33258 l -6.49771,-1.33817 c -1.68678,-0.34781 -2.73321,0.0542 -2.67628,1.01175 0.0617,0.85959 0.99518,1.67884 2.43151,2.0357 l 1.84145,0.43998 c 0.0664,0.0154 0.10341,0.0407 0.11765,0.0668 0.0285,0.0523 0.004,0.071 -0.0645,0.0734 l -8.92542,0.32208 c -1.37752,0.0497 -1.89552,0.76142 -1.33105,1.79832 0.18499,0.33984 0.50374,0.64818 0.89841,0.88271 -1.0692,0.18963 -1.44109,0.80721 -0.95726,1.69601 0.46961,0.86264 1.52363,1.45543 2.7133,1.57241 -0.12713,0.23559 -0.10246,0.53677 0.0636,0.84175 0.52179,0.95849 1.73802,1.57208 3.05862,1.52443 l 1.12707,-0.0407 c -0.16127,0.23683 -0.12429,0.58199 0.0655,0.93055 0.52178,0.95849 1.80917,1.59614 3.14115,1.54808 l 9.87033,-0.35618 c 5.41902,-0.19555 7.35819,-2.85988 5.28054,-6.67641 z m -1.72949,0.10682 c 1.69817,3.11946 0.12995,5.12182 -4.44661,5.28696 l -9.47188,0.34181 c -0.47816,0.0173 -0.92026,-0.1978 -1.10527,-0.5376 -0.18974,-0.34854 -0.009,-0.61272 0.46963,-0.62998 l 5.80607,-0.20952 c 0.47815,-0.0173 0.66125,-0.2993 0.48574,-0.62169 -0.17551,-0.32242 -0.65745,-0.58934 -1.1356,-0.57208 l -8.70912,0.31428 c -0.47815,0.0173 -0.92499,-0.2065 -1.11,-0.5463 -0.19448,-0.35728 -0.004,-0.60403 0.47437,-0.62129 l 8.12852,-0.29332 c 0.46675,-0.0168 0.64511,-0.3076 0.47435,-0.62128 -0.18026,-0.33113 -0.6622,-0.59805 -1.12895,-0.58119 l -9.55158,0.34467 c -0.47816,0.0173 -0.94112,-0.21481 -1.13086,-0.56335 -0.18499,-0.33983 9.6e-4,-0.59532 0.49049,-0.61299 l 9.55158,-0.34467 c 0.45537,-0.0164 0.65459,-0.29017 0.47908,-0.61257 -0.185,-0.33983 -0.67357,-0.59763 -1.12894,-0.5812 l -8.12853,0.29332 c -0.47815,0.0173 -0.92974,-0.21522 -1.11947,-0.56375 -0.18499,-0.33983 9.6e-4,-0.59531 0.47911,-0.61257 l 11.24787,-0.4059 c 0.5806,-0.0209 0.83202,-0.30544 0.62329,-0.68884 -0.18024,-0.33111 -0.52557,-0.60295 -1.25892,-0.79861 l -4.13162,-1.08591 c -0.54075,-0.14042 -0.92498,-0.41975 -0.93637,-0.73917 -0.0114,-0.31943 0.3368,-0.44751 0.9639,-0.3191 l 6.48629,1.33854 c 4.4333,0.91507 6.95307,2.70768 8.33341,5.24336 z" />
    </g>
  </g>
</svg>
