<?xml version="1.0" encoding="UTF-8" standalone="no"?>
<svg
   xmlns:osb="http://www.openswatchbook.org/uri/2009/osb"
   xmlns:dc="http://purl.org/dc/elements/1.1/"
   xmlns:cc="http://creativecommons.org/ns#"
   xmlns:rdf="http://www.w3.org/1999/02/22-rdf-syntax-ns#"
   xmlns:svg="http://www.w3.org/2000/svg"
   xmlns="http://www.w3.org/2000/svg"
   xmlns:sodipodi="http://sodipodi.sourceforge.net/DTD/sodipodi-0.dtd"
   xmlns:inkscape="http://www.inkscape.org/namespaces/inkscape"
   width="210mm"
   height="297mm"
   viewBox="0 0 210 297"
   version="1.1"
   id="svg220"
   inkscape:version="1.0.1 (c497b03c, 2020-09-10)"
   sodipodi:docname="circut.svg">
  <defs
     id="defs214">
    <linearGradient
       id="linearGradient1197"
       osb:paint="solid">
      <stop
         style="stop-color:#000000;stop-opacity:1;"
         offset="0"
         id="stop1195" />
    </linearGradient>
    <linearGradient
       id="linearGradient1107"
       osb:paint="solid">
      <stop
         style="stop-color:#000000;stop-opacity:1;"
         offset="0"
         id="stop1105" />
    </linearGradient>
    <filter
       inkscape:collect="always"
       style="color-interpolation-filters:sRGB"
       id="filter4499-7"
       x="-0.00012982222"
       width="1.0002596"
       y="-0.00011155952"
       height="1.000223">
      <feGaussianBlur
         inkscape:collect="always"
         stdDeviation="0.0015086234"
         id="feGaussianBlur4501-1" />
    </filter>
  </defs>
  <sodipodi:namedview
     id="base"
     pagecolor="#ffffff"
     bordercolor="#666666"
     borderopacity="1.0"
     inkscape:pageopacity="0.0"
     inkscape:pageshadow="2"
     inkscape:zoom="0.64573589"
     inkscape:cx="739.50424"
     inkscape:cy="799.26538"
     inkscape:document-units="mm"
     inkscape:current-layer="Regular-M"
     inkscape:document-rotation="0"
     showgrid="false"
     inkscape:window-width="1680"
     inkscape:window-height="904"
     inkscape:window-x="-64"
     inkscape:window-y="23"
     inkscape:window-maximized="0" />
  <metadata
     id="metadata217">
    <rdf:RDF>
      <cc:Work
         rdf:about="">
        <dc:format>image/svg+xml</dc:format>
        <dc:type
           rdf:resource="http://purl.org/dc/dcmitype/StillImage" />
        <dc:title></dc:title>
      </cc:Work>
    </rdf:RDF>
  </metadata>
  <g
     id="Guides"
     inkscape:label="Guides"
     style="display:inline"
     transform="matrix(0.26458333,0,0,0.26458333,-340.09243,-136.0331)">
    <g
       id="H-reference"
       style="fill:#27aae1;stroke:none"
       transform="translate(339,696)">
      <path
         d="M 54.9316,0 H 57.666 L 30.5664,-70.459 H 28.0762 L 0.976562,0 H 3.66211 L 12.9395,-24.4629 H 45.7031 Z M 29.1992,-67.0898 h 0.2442 L 44.8242,-26.709 H 13.8184 Z"
         id="path94" />
    </g>
    <path
       id="Baseline-S"
       style="opacity:1;fill:none;stroke:#27aae1;stroke-width:0.577"
       d="M 263,696 H 3036" />
    <path
       id="Capline-S"
       style="opacity:1;fill:none;stroke:#27aae1;stroke-width:0.577"
       d="M 263,625.54102 H 3036" />
    <g
       id="g101"
       style="fill:#27aae1;stroke:none"
       transform="translate(339,1126)">
      <path
         d="M 54.9316,0 H 57.666 L 30.5664,-70.459 H 28.0762 L 0.976562,0 H 3.66211 L 12.9395,-24.4629 H 45.7031 Z M 29.1992,-67.0898 h 0.2442 L 44.8242,-26.709 H 13.8184 Z"
         id="path99" />
    </g>
    <path
       id="Baseline-M"
       style="opacity:1;fill:none;stroke:#27aae1;stroke-width:0.577"
       d="M 263,1126 H 3036" />
    <path
       id="Capline-M"
       style="opacity:1;fill:none;stroke:#27aae1;stroke-width:0.577"
       d="M 263,1055.54 H 3036" />
    <g
       id="g107"
       style="fill:#27aae1;stroke:none"
       transform="translate(339,1556)">
      <path
         d="M 54.9316,0 H 57.666 L 30.5664,-70.459 H 28.0762 L 0.976562,0 H 3.66211 L 12.9395,-24.4629 H 45.7031 Z M 29.1992,-67.0898 h 0.2442 L 44.8242,-26.709 H 13.8184 Z"
         id="path105" />
    </g>
    <path
       id="Baseline-L"
       style="opacity:1;fill:none;stroke:#27aae1;stroke-width:0.577"
       d="M 263,1556 H 3036" />
    <path
       id="Capline-L"
       style="opacity:1;fill:none;stroke:#27aae1;stroke-width:0.577"
       d="M 263,1485.54 H 3036" />
    <path
       id="left-margin"
       style="opacity:0.4;fill:#00aeef;stroke:none"
       d="m 1390.74,1030.79 h 23.0469 v 119.336 H 1390.74 Z" />
    <path
       id="right-margin"
       style="opacity:0.4;fill:#00aeef;stroke:none"
       d="m 1493.5,1030.79 h 15.4461 v 119.336 H 1493.5 Z" />
  </g>
  <g
     id="Symbols"
     inkscape:label="Symbols"
     style="display:inline;opacity:1">
    <g
       id="Regular-M"
       inkscape:label="Regular-M"
       transform="translate(-73.561987,46.25164)"
       style="display:inline">
      <path
         d="m 58.0078,15.8691 c 17.7734,0 30.1758,-9.52144 36.8164,-28.2226 l 8.6428,-24.2676 c 2.246,-6.2988 0.244,-11.6211 -5.0295,-13.5742 -4.7363,-1.709 -9.4238,0.3418 -11.6699,5.5664 l -2.7832,6.7383 c -0.0977,0.2441 -0.2442,0.3418 -0.3906,0.3418 -0.293,0 -0.3907,-0.1465 -0.3907,-0.4395 v -38.2812 c 0,-5.9082 -3.8086,-9.7168 -9.6191,-9.7168 -1.9043,0 -3.6621,0.6347 -5.0293,1.7578 -0.8301,-4.9317 -4.1504,-7.9102 -9.1309,-7.9102 -4.834,0 -8.3008,3.0762 -9.1797,7.8125 -1.2695,-1.0742 -2.9296,-1.6601 -4.6386,-1.6601 -5.3711,0 -8.9844,3.7109 -8.9844,9.375 v 4.834 c -1.2695,-1.2207 -3.1738,-1.8555 -5.127,-1.8555 -5.3711,0 -9.1308,3.9551 -9.1308,9.668 v 42.3339 c 0,23.24223 14.2578,37.5 35.6445,37.5 z M 57.7637,8.34961 c -17.4805,0 -28.1739,-11.18164 -28.1739,-30.81051 v -40.625 c 0,-2.0508 1.2696,-3.418 3.1739,-3.418 1.9531,0 3.3691,1.3672 3.3691,3.418 v 24.9023 c 0,2.0508 1.5137,3.4668 3.3203,3.4668 1.8067,0 3.3692,-1.416 3.3692,-3.4668 v -37.3535 c 0,-2.0508 1.3183,-3.418 3.2226,-3.418 2.002,0 3.3203,1.3672 3.3203,3.418 v 34.8633 c 0,2.0019 1.5625,3.4179 3.3203,3.4179 1.8555,0 3.418,-1.416 3.418,-3.4179 v -40.9668 c 0,-2.0508 1.3672,-3.4668 3.3203,-3.4668 1.9043,0 3.2715,1.3672 3.2715,3.4668 v 40.9668 c 0,1.9531 1.4649,3.4179 3.2715,3.4179 1.9043,0 3.418,-1.4648 3.418,-3.4179 v -34.8633 c 0,-2.0508 1.3672,-3.418 3.3203,-3.418 1.9043,0 3.2715,1.3672 3.2715,3.418 v 48.2422 c 0,2.4902 1.5136,4.1992 3.6621,4.1992 1.8554,0 3.4179,-0.8301 4.6386,-3.4668 l 6.7872,-14.8926 c 0.8789,-1.9531 2.4902,-2.9297 4.248,-2.2461 1.7578,0.6836 2.3926,2.4414 1.5625,4.7852 l -8.6426,24.2187 C 82.3242,1.85547 71.9727,8.34961 57.7637,8.34961 Z"
         id="path153-7"
         style="fill:#000000;fill-opacity:1;fill-rule:evenodd;stroke:none;filter:url(#filter4499-7)"
         inkscape:label="path153-7"
         transform="matrix(-0.14062791,0.12951878,0.20246893,-0.00588412,133.79253,87.179283)" />
      <path
         d="m 104.58988,113.65569 c 1.72205,-2.15031 5.14378,-3.59871 10.14766,-4.29981 l 6.49577,-0.91285 c 1.68628,-0.23726 2.73328,0.034 2.67773,0.68277 -0.0604,0.58239 -0.99275,1.13828 -2.42857,1.38143 l -1.84081,0.29985 c -0.0663,0.0109 -0.10335,0.0276 -0.11755,0.0454 -0.0284,0.0355 -0.004,0.0482 0.0646,0.0496 l 8.92587,0.20948 c 1.37759,0.0323 1.89662,0.51395 1.33365,1.21694 -0.18451,0.23039 -0.5028,0.43958 -0.89714,0.59884 1.06947,0.12743 1.44226,0.54543 0.9597,1.14799 -0.46836,0.58485 -1.52152,0.98745 -2.71102,1.06786 0.12747,0.15947 0.10323,0.36352 -0.0623,0.57028 -0.5204,0.64982 -1.73575,1.06668 -3.05642,1.03569 l -1.12713,-0.0264 c 0.16161,0.16027 0.12513,0.39413 -0.0641,0.63044 -0.5204,0.64982 -1.80687,1.08305 -3.13892,1.05179 l -9.87083,-0.23165 c -5.4193,-0.12718 -7.3623,-1.93018 -5.29016,-4.51765 z m 1.72964,0.0707 c -1.69367,2.11488 -0.12256,3.46981 4.45422,3.57722 l 9.47237,0.2223 c 0.47818,0.0109 0.91997,-0.1349 1.10449,-0.36527 0.18924,-0.2363 0.008,-0.41509 -0.47053,-0.42632 l -5.80637,-0.13625 c -0.47818,-0.0109 -0.66168,-0.20211 -0.48664,-0.42069 0.17505,-0.21858 0.6566,-0.39987 1.13477,-0.38864 l 8.70957,0.20439 c 0.47818,0.0109 0.9247,-0.14079 1.10921,-0.37117 0.19397,-0.24222 0.003,-0.40919 -0.47526,-0.4204 l -8.12893,-0.19078 c -0.46678,-0.0109 -0.64556,-0.20774 -0.47525,-0.4204 0.17979,-0.2245 0.66133,-0.40579 1.12811,-0.39482 l 9.55206,0.22415 c 0.47819,0.0109 0.94081,-0.14643 1.13005,-0.38273 0.18451,-0.23039 -0.002,-0.40329 -0.49137,-0.41478 l -9.55206,-0.22416 c -0.4554,-0.0109 -0.65502,-0.19593 -0.47997,-0.41451 0.18451,-0.23038 0.6727,-0.4055 1.1281,-0.39482 l 8.12894,0.19077 c 0.47817,0.0109 0.92943,-0.14671 1.11866,-0.383 0.1845,-0.2304 -0.002,-0.40328 -0.47999,-0.41451 l -11.24844,-0.26398 c -0.58063,-0.0136 -0.83246,-0.2061 -0.62429,-0.46603 0.17977,-0.22448 0.5247,-0.40897 1.25777,-0.54224 l 4.13005,-0.73966 c 0.54054,-0.0957 0.92438,-0.28525 0.9353,-0.50165 0.0109,-0.2164 -0.33744,-0.30282 -0.96436,-0.21523 l -6.48435,0.91311 c -4.43198,0.62423 -6.94916,1.84105 -8.32584,3.56015 z"
         id="path153-2"
         style="fill:#000000;fill-opacity:1;fill-rule:evenodd;stroke:none;stroke-width:0.169528" />
    </g>
  </g>
</svg>
