<?xml version="1.0" encoding="UTF-8" standalone="no"?>
<svg
   xmlns:osb="http://www.openswatchbook.org/uri/2009/osb"
   xmlns:dc="http://purl.org/dc/elements/1.1/"
   xmlns:cc="http://creativecommons.org/ns#"
   xmlns:rdf="http://www.w3.org/1999/02/22-rdf-syntax-ns#"
   xmlns:svg="http://www.w3.org/2000/svg"
   xmlns="http://www.w3.org/2000/svg"
   xmlns:sodipodi="http://sodipodi.sourceforge.net/DTD/sodipodi-0.dtd"
   xmlns:inkscape="http://www.inkscape.org/namespaces/inkscape"
   width="210mm"
   height="297mm"
   viewBox="0 0 210 297"
   version="1.1"
   id="svg220"
   inkscape:version="1.0.1 (c497b03c, 2020-09-10)"
   sodipodi:docname="flow.svg">
  <defs
     id="defs214">
    <linearGradient
       id="linearGradient1197"
       osb:paint="solid">
      <stop
         style="stop-color:#000000;stop-opacity:1;"
         offset="0"
         id="stop1195" />
    </linearGradient>
    <linearGradient
       id="linearGradient1107"
       osb:paint="solid">
      <stop
         style="stop-color:#000000;stop-opacity:1;"
         offset="0"
         id="stop1105" />
    </linearGradient>
    <filter
       inkscape:collect="always"
       style="color-interpolation-filters:sRGB"
       id="filter4499-7"
       x="-0.00012982222"
       width="1.0002596"
       y="-0.00011155952"
       height="1.000223">
      <feGaussianBlur
         inkscape:collect="always"
         stdDeviation="0.0015086234"
         id="feGaussianBlur4501-1" />
    </filter>
  </defs>
  <sodipodi:namedview
     id="base"
     pagecolor="#ffffff"
     bordercolor="#666666"
     borderopacity="1.0"
     inkscape:pageopacity="0.0"
     inkscape:pageshadow="2"
     inkscape:zoom="0.64573589"
     inkscape:cx="646.58699"
     inkscape:cy="819.39745"
     inkscape:document-units="mm"
     inkscape:current-layer="Regular-M"
     inkscape:document-rotation="0"
     showgrid="false"
     inkscape:window-width="1680"
     inkscape:window-height="904"
     inkscape:window-x="15"
     inkscape:window-y="174"
     inkscape:window-maximized="0" />
  <metadata
     id="metadata217">
    <rdf:RDF>
      <cc:Work
         rdf:about="">
        <dc:format>image/svg+xml</dc:format>
        <dc:type
           rdf:resource="http://purl.org/dc/dcmitype/StillImage" />
        <dc:title />
      </cc:Work>
    </rdf:RDF>
  </metadata>
  <g
     id="Guides"
     inkscape:label="Guides"
     style="display:inline"
     transform="matrix(0.26458333,0,0,0.26458333,-340.09243,-136.0331)">
    <g
       id="H-reference"
       style="fill:#27aae1;stroke:none"
       transform="translate(339,696)">
      <path
         d="M 54.9316,0 H 57.666 L 30.5664,-70.459 H 28.0762 L 0.976562,0 H 3.66211 L 12.9395,-24.4629 H 45.7031 Z M 29.1992,-67.0898 h 0.2442 L 44.8242,-26.709 H 13.8184 Z"
         id="path94" />
    </g>
    <path
       id="Baseline-S"
       style="opacity:1;fill:none;stroke:#27aae1;stroke-width:0.577"
       d="M 263,696 H 3036" />
    <path
       id="Capline-S"
       style="opacity:1;fill:none;stroke:#27aae1;stroke-width:0.577"
       d="M 263,625.54102 H 3036" />
    <g
       id="g101"
       style="fill:#27aae1;stroke:none"
       transform="translate(339,1126)">
      <path
         d="M 54.9316,0 H 57.666 L 30.5664,-70.459 H 28.0762 L 0.976562,0 H 3.66211 L 12.9395,-24.4629 H 45.7031 Z M 29.1992,-67.0898 h 0.2442 L 44.8242,-26.709 H 13.8184 Z"
         id="path99" />
    </g>
    <path
       id="Baseline-M"
       style="opacity:1;fill:none;stroke:#27aae1;stroke-width:0.577"
       d="M 263,1126 H 3036" />
    <path
       id="Capline-M"
       style="opacity:1;fill:none;stroke:#27aae1;stroke-width:0.577"
       d="M 263,1055.54 H 3036" />
    <g
       id="g107"
       style="fill:#27aae1;stroke:none"
       transform="translate(339,1556)">
      <path
         d="M 54.9316,0 H 57.666 L 30.5664,-70.459 H 28.0762 L 0.976562,0 H 3.66211 L 12.9395,-24.4629 H 45.7031 Z M 29.1992,-67.0898 h 0.2442 L 44.8242,-26.709 H 13.8184 Z"
         id="path105" />
    </g>
    <path
       id="Baseline-L"
       style="opacity:1;fill:none;stroke:#27aae1;stroke-width:0.577"
       d="M 263,1556 H 3036" />
    <path
       id="Capline-L"
       style="opacity:1;fill:none;stroke:#27aae1;stroke-width:0.577"
       d="M 263,1485.54 H 3036" />
    <path
       id="left-margin"
       style="opacity:0.4;fill:#00aeef;stroke:none"
       d="m 1390.74,1030.79 h 23.0469 v 119.336 H 1390.74 Z" />
    <path
       id="right-margin"
       style="opacity:0.4;fill:#00aeef;stroke:none"
       d="m 1493.5,1030.79 h 15.4461 v 119.336 H 1493.5 Z" />
  </g>
  <g
     id="Symbols"
     inkscape:label="Symbols"
     style="display:inline">
    <g
       id="Regular-M"
       inkscape:label="Regular-M"
       transform="translate(-73.561987,46.25164)"
       style="display:inline">
      <path
         d="m 58.0078,15.8691 c 17.7734,0 30.1758,-9.52144 36.8164,-28.2226 l 8.6428,-24.2676 c 2.246,-6.2988 0.244,-11.6211 -5.0295,-13.5742 -4.7363,-1.709 -9.4238,0.3418 -11.6699,5.5664 l -2.7832,6.7383 c -0.0977,0.2441 -0.2442,0.3418 -0.3906,0.3418 -0.293,0 -0.3907,-0.1465 -0.3907,-0.4395 v -38.2812 c 0,-5.9082 -3.8086,-9.7168 -9.6191,-9.7168 -1.9043,0 -3.6621,0.6347 -5.0293,1.7578 -0.8301,-4.9317 -4.1504,-7.9102 -9.1309,-7.9102 -4.834,0 -8.3008,3.0762 -9.1797,7.8125 -1.2695,-1.0742 -2.9296,-1.6601 -4.6386,-1.6601 -5.3711,0 -8.9844,3.7109 -8.9844,9.375 v 4.834 c -1.2695,-1.2207 -3.1738,-1.8555 -5.127,-1.8555 -5.3711,0 -9.1308,3.9551 -9.1308,9.668 v 42.3339 c 0,23.24223 14.2578,37.5 35.6445,37.5 z M 57.7637,8.34961 c -17.4805,0 -28.1739,-11.18164 -28.1739,-30.81051 v -40.625 c 0,-2.0508 1.2696,-3.418 3.1739,-3.418 1.9531,0 3.3691,1.3672 3.3691,3.418 v 24.9023 c 0,2.0508 1.5137,3.4668 3.3203,3.4668 1.8067,0 3.3692,-1.416 3.3692,-3.4668 v -37.3535 c 0,-2.0508 1.3183,-3.418 3.2226,-3.418 2.002,0 3.3203,1.3672 3.3203,3.418 v 34.8633 c 0,2.0019 1.5625,3.4179 3.3203,3.4179 1.8555,0 3.418,-1.416 3.418,-3.4179 v -40.9668 c 0,-2.0508 1.3672,-3.4668 3.3203,-3.4668 1.9043,0 3.2715,1.3672 3.2715,3.4668 v 40.9668 c 0,1.9531 1.4649,3.4179 3.2715,3.4179 1.9043,0 3.418,-1.4648 3.418,-3.4179 v -34.8633 c 0,-2.0508 1.3672,-3.418 3.3203,-3.418 1.9043,0 3.2715,1.3672 3.2715,3.418 v 48.2422 c 0,2.4902 1.5136,4.1992 3.6621,4.1992 1.8554,0 3.4179,-0.8301 4.6386,-3.4668 l 6.7872,-14.8926 c 0.8789,-1.9531 2.4902,-2.9297 4.248,-2.2461 1.7578,0.6836 2.3926,2.4414 1.5625,4.7852 l -8.6426,24.2187 C 82.3242,1.85547 71.9727,8.34961 57.7637,8.34961 Z"
         id="path153-7"
         style="fill:#000000;fill-opacity:1;fill-rule:evenodd;stroke:none;filter:url(#filter4499-7)"
         inkscape:label="path153-7"
         transform="matrix(-0.18662711,0.080334,0.17816071,0.15063333,135.42462,99.870153)" />
      <path
         d="m 127.426,108.50814 c -2.78833,-2.29486 -6.76263,-2.99097 -11.78879,-2.07038 l -6.52623,1.1913 c -1.69435,0.30886 -2.51421,1.07337 -2.10301,1.93997 0.37892,0.77402 1.55124,1.18428 3.01674,0.97756 l 1.87226,-0.28129 c 0.0673,-0.0106 0.11113,-9.6e-4 0.1341,0.0179 0.046,0.0378 0.0301,0.0644 -0.0323,0.0922 l -8.156,3.63958 c -1.25877,0.56172 -1.47271,1.41558 -0.56115,2.16582 0.29875,0.24588 0.70974,0.4125 1.16351,0.48225 -0.92049,0.57606 -1.03418,1.28795 -0.25283,1.93102 0.75837,0.62415 1.95765,0.77931 3.10462,0.44248 -0.0297,0.26605 0.10591,0.5361 0.37402,0.75676 0.84263,0.6935 2.20012,0.80723 3.40688,0.26872 l 1.02991,-0.4596 c -0.0609,0.27998 0.10259,0.58621 0.40901,0.8384 0.84263,0.6935 2.27511,0.80291 3.49227,0.25976 l 9.01945,-4.02489 c 4.95187,-2.20975 5.75277,-5.40624 2.39758,-8.16763 z m -1.56377,0.74643 c 2.74237,2.25703 2.03767,4.70083 -2.14436,6.56704 l -8.65535,3.86242 c -0.43694,0.19498 -0.9274,0.16104 -1.22615,-0.0848 -0.30641,-0.25218 -0.23726,-0.56499 0.19967,-0.75997 l 5.30556,-2.36759 c 0.43693,-0.19498 0.50114,-0.52505 0.21772,-0.75831 -0.28344,-0.23328 -0.83025,-0.3004 -1.26718,-0.10542 l -7.95835,3.55138 c -0.43693,0.19498 -0.93504,0.15475 -1.23379,-0.0911 -0.31408,-0.2585 -0.22961,-0.5587 0.20733,-0.75368 l 7.42779,-3.31462 c 0.42652,-0.19033 0.48308,-0.52671 0.20731,-0.75367 -0.2911,-0.23958 -0.83791,-0.3067 -1.26442,-0.11636 l -8.72818,3.89491 c -0.43694,0.19498 -0.95311,0.15308 -1.25952,-0.0991 -0.29875,-0.24588 -0.22195,-0.5524 0.22538,-0.75202 l 8.72818,-3.89491 c 0.41612,-0.18569 0.49839,-0.5141 0.21496,-0.74736 -0.29875,-0.24588 -0.8483,-0.30206 -1.26442,-0.11637 l -7.4278,3.31462 c -0.43693,0.19498 -0.94271,0.14844 -1.24911,-0.10374 -0.29875,-0.24588 -0.22195,-0.55239 0.21498,-0.74737 l 10.27824,-4.58663 c 0.53055,-0.23675 0.6572,-0.59467 0.32014,-0.87207 -0.29108,-0.23957 -0.71306,-0.36239 -1.46633,-0.26932 l -4.23773,0.53956 c -0.554,0.0722 -1.01486,-0.043 -1.14498,-0.33494 -0.13012,-0.29195 0.1448,-0.54104 0.77438,-0.6567 l 6.51578,-1.18668 c 4.45354,-0.8109 7.46112,-0.0918 9.69025,1.74286 z"
         id="path153-2"
         style="fill:#000000;fill-opacity:1;fill-rule:evenodd;stroke:none;stroke-width:0.205972" />
    </g>
  </g>
</svg>
